<?xml version="1.0" encoding="UTF-8"?>
<svg id="Ebene_2" data-name="Ebene 2" xmlns="http://www.w3.org/2000/svg" xmlns:xlink="http://www.w3.org/1999/xlink" viewBox="0 0 60.58 71">
  <defs>
    <style>
      .cls-1 {
        fill: none;
      }

      .cls-2 {
        clip-path: url(#clippath-1);
      }

      .cls-3 {
        fill: #333;
      }

      .cls-4 {
        clip-path: url(#clippath);
      }
    </style>
    <clipPath id="clippath">
      <rect class="cls-1" width="60.58" height="71"/>
    </clipPath>
    <clipPath id="clippath-1">
      <rect class="cls-1" width="60.58" height="71"/>
    </clipPath>
  </defs>
  <g id="Ebene_1-2" data-name="Ebene 1">
    <g class="cls-4">
      <g class="cls-2">
        <path class="cls-3" d="M13.03,42.91c-.47.32-.89.69-1.36.92-.38.18-.83.28-1.25.29-1,.02-1.63-.72-1.48-1.71.05-.32.15-.64.26-.96.24-.68-.09-1.12-.8-1.04-.34.04-.68.14-1.02.17-.68.06-.82-.08-.84-.77,0-.06,0-.12-.02-.19-.14.04-.27.09-.4.12-.28.07-.51.03-.69-.26-.36-.54-.72-.6-1.26-.25-.35.23-.68.5-1.03.73-.34.22-.71.29-1.05.03-.33-.25-.27-.61-.19-.96.12-.45.28-.89.37-1.35.13-.62-.06-.85-.69-.95-.3-.04-.61-.05-.89-.15-.77-.27-.9-.96-.28-1.49.33-.28.7-.52,1.04-.8.25-.2.38-.43.2-.78-.2-.38-.05-.59.37-.55.46.04.92.15,1.37.25.38.08.63.08.77-.4.21-.75.85-1.02,1.56-1.1.72-.08,1.44-.1,2.16-.19.87-.1,1.62-.43,2.11-1.27-.59-.03-1.16,0-1.7-.1-.73-.14-1.48-.3-2.15-.61-1.2-.56-1.33-1.47-.44-2.46.19-.21.52-.39.55-.62.03-.19-.29-.42-.44-.65-.41-.64-.23-1.04.53-1.17.62-.11,1.26-.16,1.87-.28.92-.19,1.67-.64,2.17-1.48.22-.37.3-.75.19-1.16-.03-.12-.03-.24-.06-.36-.18-.65,0-1.15.57-1.52.37-.24.52-.56.32-1-.07-.16-.07-.35-.08-.53-.04-.76.27-1.13,1.05-1.15.55-.02,1.11.06,1.67.08.29.01.57.03.86,0,.83-.1,1.16-.82.65-1.47-.4-.5-.92-.91-1.33-1.41-.31-.38-.62-.8-.76-1.25-.28-.92.05-1.74.83-2.25.78-.51,1.63-.89,2.47-1.29.74-.36,1.52-.65,2.27-1.01.64-.31,1.14-.79,1.34-1.51.02-.09.07-.17.1-.25.62-1.45,1.28-1.89,2.84-1.88.24,0,.48,0,.77,0-.1-.22-.2-.43-.28-.64-.31-.83-.02-1.33.84-1.44.6-.08,1.2-.08,1.8-.16.99-.13,1.69-.67,2.08-1.59.1-.24.21-.47.32-.7.13-.27.35-.38.66-.37.34.01.48.15.47.5-.03.82.23,1.11,1.05,1.26.66.12,1.28-.01,1.9-.23.28-.1.57-.21.86-.26.33-.06.61.07.72.4.11.34-.15.49-.4.61-.31.15-.65.25-.96.38-.38.16-.78.32-.78.83,0,.57.35,1.13.9,1.21.58.08,1.21.1,1.77-.03.69-.16,1.35-.5,2.02-.77.06-.02.1-.06.16-.09,1.2-.62,1.79-.26,1.73,1.08-.03.62-.13,1.24-.09,1.85.03.44.16.96.43,1.29.74.91,2.13.7,2.59-.39.26-.6.84-.74,1.52-.63.68.11,1.21.61,1.23,1.2.01.43-.09.86-.14,1.3-.06.46-.19.92-.17,1.38.04.99.66,1.62,1.45,2.1,1.16.71,2.46,1.03,3.77,1.34.85.21,1.7.39,2.54.64,1.1.32,1.48.88,1.52,2.01,0,.15.14.33.25.45.16.17.38.29.55.46.08.08.14.22.13.32-.04.3-.06.62-.2.87-.16.28-.41.56-.68.71-.32.17-.72.2-1.09.28.07.61.46,1.07,1.05,1.22.17.04.36.06.53.11.43.12.66.46.62.92-.05.48-.31.79-.78.77-.44-.02-.89-.12-1.33-.22-.48-.11-.96-.27-1.44-.35-.22-.04-.5.01-.68.13-.38.25-.29.86.18,1,.6.18,1.23.27,1.85.36.95.14,1.91.23,2.86.38.33.05.67.19.96.37.72.44.66,1.32-.1,1.68-.34.16-.71.26-1.05.41-.61.27-.72.64-.41,1.24.3.58.72.95,1.41.94.25,0,.51.03.77.04.87.05.92.09,1.19.92.19.59.58,1,1.13,1.29.67.35.76.6.47,1.31-.11.26-.26.51-.38.77-.21.46-.22.92.1,1.32.46.57.53,1.19.36,1.87-.06.22-.11.44-.17.66-.2.74-.02,1.36.53,1.89.51.49.5.8-.02,1.27-.65.6-.8,1.39-.84,2.22-.02.29,0,.58-.05.86-.11.66-.45.99-1.12,1.02-.57.02-1.15,0-1.71-.09-.57-.08-1.04.07-1.46.43-.24.2-.48.42-.72.62-.42.35-.87.57-1.38.15-.04.04-.07.06-.07.08.02,1.07-.55,1.51-1.62,1.25-.17-.04-.36-.1-.5-.2-.5-.36-1.04-.34-1.6-.19-.17.05-.35.1-.52.14-.6.14-.72.07-.94-.49-.18-.44-.49-.72-.97-.78-.37-.05-.75-.06-1.12-.09-.56-.05-.84-.26-.9-.82-.04-.33-.19-.41-.48-.45-1.93-.28-3.53.38-4.84,1.77-1.49,1.57-2.33,3.5-2.91,5.55-1.39,4.95-1.58,9.95-.42,14.97.17.73.51,1.41.77,2.11.16.44.38.86.48,1.31.15.69-.09,1.03-.78,1.16-.37.07-.75.11-1.12.11-2.08,0-4.16,0-6.24-.02-.37,0-.75-.06-1.11-.16-.53-.14-.71-.44-.52-.95.24-.66.51-1.33.85-1.94,1.3-2.32,1.96-4.85,2.41-7.44.64-3.6.89-7.24.73-10.89-.08-1.76-.26-3.52-.9-5.19-.2-.51-.48-1.01-.81-1.45-.54-.71-1.32-.88-2.14-.53-.3.13-.6.29-.86.49-1.4,1.09-2.94,1.37-4.64.89-.34-.1-.71-.15-1.07-.17-.72-.05-1.33.17-1.81.73-.33.37-.66.75-1.04,1.07-.5.42-.91.41-1.43,0-.5-.4-1.06-.63-1.69-.69-1.43-.12-1.64-.29-2.01-1.67-.02-.06-.03-.11-.05-.16M41.51,39.13c-.69.15-1.35.29-2.01.45-.51.13-.89.4-1.08.92-.16.44-.44.57-.9.46-.54-.13-.98-.43-1.24-.9-.18-.33-.34-.28-.59-.13-.7.42-1.07,1.1-1.29,1.85-.62,2.18-.52,4.34.21,6.48.06.17.16.34.27.58,1.88-3.23,4.17-5.92,7.74-7.28-.89-.63-1.18-1.44-1.12-2.42"/>
      </g>
    </g>
  </g>
</svg>